<?xml version="1.0" encoding="utf-8"?>
<!-- Generator: Adobe Illustrator 21.0.2, SVG Export Plug-In . SVG Version: 6.00 Build 0)  -->
<svg version="1.1" id="Layer_1" xmlns="http://www.w3.org/2000/svg" xmlns:xlink="http://www.w3.org/1999/xlink" x="0px" y="0px"
	 width="288px" height="560px" viewBox="0 0 288 560" enable-background="new 0 0 288 560" xml:space="preserve">
<path fill="#F7931E" d="M37.8,197.9V189c0-4.9,4-8.8,8.8-8.8h6.7v-4.9c0-1.3-1-2.2-2.3-2.2h-1.2c-1.3,0-2.2,0.9-2.2,2.2v0.6
	c0,0.7-0.4,1.1-1.1,1.1h-6.9c-0.6,0-1-0.4-1-1.1v-2.7c0-4.9,4-8.8,8.9-8.8h6.2c4.8,0,8.8,3.8,8.8,8.8v32.3c0,0.7-0.4,1.1-1,1.1h-4.9
	c-0.7,0-1.2-0.3-1.2-1.1v-1.3c-1.9,1.4-3,2.5-6.8,2.5h-2.1C41.8,206.8,37.8,202.9,37.8,197.9z M51.1,198.3c1.3,0,2.2-1,2.2-2.2v-7.9
	h-3.9c-1.3,0-2.3,0.9-2.3,2.2v5.7c0,1.2,1,2.2,2.3,2.2H51.1z"/>
<path fill="#F7931E" d="M68.4,198.3v-24.9c0-4.9,4-8.9,8.9-8.9h7.1c4.8,0,8.8,3.9,8.8,8.9V189c0,0.6-0.5,1-1.1,1H77.7v6.2
	c0,1.3,1,2.2,2.3,2.2h1.8c1.3,0,2.2-0.9,2.2-2.2v-0.5c0-0.7,0.4-1.1,1.1-1.1h7.2c0.6,0,1,0.4,1,1.1v2.7c0,4.9-4,8.8-8.9,8.8h-7.1
	C72.4,207,68.4,203.2,68.4,198.3z M83.8,181.9v-6.5c0-1.2-1-2.2-2.3-2.2h-1.8c-1.3,0-2.2,1-2.2,2.2v6.5H83.8z"/>
<path fill="#F15A24" d="M98.1,205.5V198c0-0.7,0.4-1.1,1.1-1.1h30.9c0.6,0,1,0.4,1,1.1v7.5c0,0.7-0.4,1.1-1,1.1H99.2
	C98.6,206.6,98.1,206.2,98.1,205.5z"/>
<path fill="none" stroke="#F94319" stroke-width="2" stroke-miterlimit="10" d="M137.3,198.2v-8.4c0-0.7,0.5-1.1,1.1-1.1h8
	c0.7,0,1.1,0.4,1.1,1.1v5.7c0,1.2,1,2.2,2.2,2.2h2.2c1.2,0,2.2-1,2.2-2.2v-12.9c0-1.2-1-2.2-2.2-2.2h-5.7c-4.8,0-8.9-3.9-8.9-8.8
	v-16.7c0-4.9,4-8.8,8.9-8.8h9.1c4.8,0,8.8,3.8,8.8,8.8v5.5c0,0.7-0.4,1.1-1.1,1.1h-8c-0.6,0-1.1-0.4-1.1-1.1V158
	c0-1.3-0.9-2.2-2.2-2.2h-1.9c-1.2,0-2.2,0.9-2.2,2.2v10.5c0,1.2,1,2.2,2.2,2.2h5.9c4.8,0,8.8,3.8,8.8,8.8v18.7
	c0,4.9-3.9,8.9-8.8,8.9h-9.4C141.4,207,137.3,203.1,137.3,198.2z"/>
<path fill="none" stroke="#F94319" stroke-width="2" stroke-miterlimit="10" d="M179.6,205.5l-10-58c-0.2-0.8,0.3-1.1,0.7-1.1h8.6
	c0.5,0,0.8,0.4,0.9,1.1l4.4,36.2l4.4-36.2c0.1-0.7,0.4-1.1,0.9-1.1h8.6c0.4,0,0.8,0.3,0.7,1.1l-10,58c-0.1,0.7-0.7,1.1-1.2,1.1h-6.9
	C180.2,206.6,179.7,206.2,179.6,205.5z"/>
<path fill="none" stroke="#F94319" stroke-width="2" stroke-miterlimit="10" d="M204.7,198.2v-43.3c0-4.9,4-8.8,8.8-8.8h9
	c4.9,0,8.9,3.8,8.9,8.8v5.5c0,0.7-0.5,1.1-1.1,1.1h-8c-0.7,0-1.1-0.4-1.1-1.1V158c0-1.3-1-2.2-2.2-2.2h-2c-1.3,0-2.3,0.9-2.3,2.2
	v37.5c0,1.2,1,2.2,2.3,2.2h2.3c1.3,0,2.2-1,2.2-2.2v-8.4h-2.4c-0.6,0-1.1-0.4-1.1-1.1v-7.5c0-0.7,0.5-1.1,1.1-1.1h11.5
	c0.7,0,1.1,0.4,1.1,1.1v19.7c0,4.9-4,8.9-8.8,8.9h-9.5C208.7,207,204.7,203.1,204.7,198.2z"/>
<rect x="37.8" y="221.4" fill="#FFB000" width="29" height="29"/>
<circle fill="#FFB000" cx="90.1" cy="235.9" r="14.8"/>
<path fill="#FFB000" d="M216.9,221.1c-8.2,0-14.8,6.6-14.8,14.8s6.6,14.8,14.8,14.8s14.8-6.6,14.8-14.8S225.1,221.1,216.9,221.1z
	 M224,240.9c-2.8,0-5-2.2-5-5s2.2-5,5-5s5,2.2,5,5S226.7,240.9,224,240.9z"/>
<line fill="none" stroke="#FFB000" stroke-width="4" stroke-miterlimit="10" x1="116.2" y1="221.4" x2="116.2" y2="250.8"/>
<polygon fill="#FFB000" points="126.7,250.4 141.3,221.4 156.5,250.8 "/>
<path fill="none" stroke="#FFB000" stroke-width="4" stroke-miterlimit="10" d="M166.6,250.4c0-16.8,25.4-13.1,25.4-29.3"/>
</svg>
