<?xml version="1.0" encoding="utf-8"?>
<!-- Generator: Adobe Illustrator 16.0.0, SVG Export Plug-In . SVG Version: 6.00 Build 0)  -->
<!DOCTYPE svg PUBLIC "-//W3C//DTD SVG 1.1//EN" "http://www.w3.org/Graphics/SVG/1.1/DTD/svg11.dtd">
<svg version="1.1" id="Layer_1" xmlns="http://www.w3.org/2000/svg" xmlns:xlink="http://www.w3.org/1999/xlink" x="0px" y="0px"
	 width="288px" height="560px" viewBox="0 0 288 560" enable-background="new 0 0 288 560" xml:space="preserve">
<path fill="#F7931E" d="M37.8,197.9V189c0-4.899,4-8.8,8.8-8.8h6.7v-4.9c0-1.3-1-2.199-2.3-2.199h-1.2c-1.3,0-2.2,0.899-2.2,2.199
	v0.601c0,0.7-0.4,1.1-1.1,1.1h-6.9c-0.6,0-1-0.399-1-1.1v-2.7c0-4.899,4-8.8,8.9-8.8h6.2c4.8,0,8.8,3.8,8.8,8.8v32.3
	c0,0.7-0.4,1.101-1,1.101h-4.9c-0.7,0-1.2-0.3-1.2-1.101v-1.3c-1.9,1.4-3,2.5-6.8,2.5h-2.1C41.8,206.8,37.8,202.9,37.8,197.9z
	 M51.1,198.3c1.3,0,2.2-1,2.2-2.199v-7.9h-3.9c-1.3,0-2.3,0.9-2.3,2.2v5.7c0,1.199,1,2.199,2.3,2.199H51.1z"/>
<path fill="#F7931E" d="M68.4,198.3V173.4c0-4.9,4-8.9,8.9-8.9h7.1c4.8,0,8.8,3.9,8.8,8.9V189c0,0.601-0.5,1-1.1,1H77.7v6.2
	c0,1.3,1,2.2,2.3,2.2h1.8c1.3,0,2.2-0.9,2.2-2.2v-0.5c0-0.7,0.4-1.1,1.1-1.1h7.2c0.6,0,1,0.399,1,1.1v2.7c0,4.899-4,8.8-8.9,8.8
	h-7.1C72.4,207,68.4,203.2,68.4,198.3z M83.8,181.9v-6.5c0-1.2-1-2.2-2.3-2.2h-1.8c-1.3,0-2.2,1-2.2,2.2v6.5H83.8z"/>
<path fill="#F15A24" d="M98.1,205.5V198c0-0.7,0.4-1.1,1.1-1.1h30.9c0.6,0,1,0.399,1,1.1v7.5c0,0.7-0.4,1.101-1,1.101H99.2
	C98.6,206.6,98.1,206.2,98.1,205.5z"/>
<path fill="none" stroke="#F94319" stroke-width="2" stroke-miterlimit="10" d="M137.3,198.2v-8.4c0-0.699,0.5-1.1,1.1-1.1h8
	c0.699,0,1.1,0.4,1.1,1.1v5.7c0,1.2,1,2.2,2.2,2.2h2.2c1.199,0,2.199-1,2.199-2.2V182.6c0-1.2-1-2.2-2.199-2.2h-5.7
	c-4.8,0-8.9-3.9-8.9-8.8v-16.7c0-4.9,4-8.8,8.9-8.8h9.1c4.8,0,8.8,3.8,8.8,8.8v5.5c0,0.7-0.399,1.1-1.1,1.1h-8
	c-0.6,0-1.1-0.399-1.1-1.1V158c0-1.3-0.9-2.2-2.2-2.2h-1.9c-1.2,0-2.2,0.9-2.2,2.2v10.5c0,1.2,1,2.2,2.2,2.2h5.9
	c4.8,0,8.8,3.8,8.8,8.8v18.7c0,4.9-3.9,8.9-8.8,8.9h-9.4C141.4,207,137.3,203.1,137.3,198.2z"/>
<path fill="none" stroke="#F94319" stroke-width="2" stroke-miterlimit="10" d="M179.6,205.5l-10-58c-0.199-0.8,0.301-1.1,0.7-1.1
	h8.601c0.5,0,0.8,0.399,0.899,1.1l4.4,36.2l4.399-36.2c0.101-0.7,0.4-1.1,0.9-1.1h8.6c0.4,0,0.801,0.3,0.7,1.1l-10,58
	c-0.1,0.7-0.7,1.101-1.2,1.101H180.7C180.2,206.6,179.7,206.2,179.6,205.5z"/>
<path fill="none" stroke="#F94319" stroke-width="2" stroke-miterlimit="10" d="M204.7,198.2v-43.3c0-4.9,4-8.8,8.8-8.8h9
	c4.9,0,8.9,3.8,8.9,8.8v5.5c0,0.7-0.5,1.1-1.101,1.1h-8c-0.7,0-1.1-0.399-1.1-1.1V158c0-1.3-1-2.2-2.2-2.2h-2
	c-1.3,0-2.3,0.9-2.3,2.2v37.5c0,1.2,1,2.2,2.3,2.2h2.3c1.3,0,2.2-1,2.2-2.2V187.1h-2.4c-0.6,0-1.1-0.4-1.1-1.101v-7.5
	c0-0.7,0.5-1.1,1.1-1.1h11.5c0.7,0,1.101,0.399,1.101,1.1v19.7c0,4.9-4,8.9-8.8,8.9h-9.5C208.7,207,204.7,203.1,204.7,198.2z"/>
<rect x="37.8" y="222.9" fill="#FFB000" width="29" height="29"/>
<circle opacity="0.9" fill="#FFB000" cx="90.1" cy="237.4" r="14.8"/>
<path opacity="0.2" fill="#FFB000" d="M216.9,222.6c-8.2,0-14.801,6.6-14.801,14.8s6.601,14.8,14.801,14.8
	c8.199,0,14.8-6.6,14.8-14.8S225.1,222.6,216.9,222.6z M224,242.4c-2.8,0-5-2.2-5-5s2.2-5,5-5s5,2.2,5,5S226.7,242.4,224,242.4z"/>
<line opacity="0.8" fill="none" stroke="#FFB000" stroke-width="4" stroke-miterlimit="10" x1="116.2" y1="222.9" x2="116.2" y2="252.3"/>
<polygon opacity="0.6" fill="#FFB000" points="126.7,251.9 141.3,222.9 156.5,252.3 "/>
<path opacity="0.4" fill="none" stroke="#FFB000" stroke-width="4" stroke-miterlimit="10" d="M166.6,251.9
	c0-16.8,25.4-13.101,25.4-29.3"/>
</svg>
